<svg xmlns="http://www.w3.org/2000/svg" style="display:none">
  
  <symbol id="i-chevron-right" viewBox="0 0 24 24"><path d="M9 6l6 6-6 6" fill="none" stroke="currentColor" stroke-width="2"></path></symbol>
  <symbol id="i-chevron-down" viewBox="0 0 24 24"><path d="M6 9l6 6 6-6" fill="none" stroke="currentColor" stroke-width="2"></path></symbol>
  <symbol id="i-menu" viewBox="0 0 24 24"><path d="M3 6h18M3 12h18M3 18h18" stroke="currentColor" stroke-width="2"></path></symbol>
  <symbol id="i-close" viewBox="0 0 24 24"><path d="M5 5l14 14M19 5L5 19" stroke="currentColor" stroke-width="2"></path></symbol>
  <symbol id="i-arrow-up" viewBox="0 0 24 24"><path d="M12 19V5M5 12l7-7 7 7" fill="none" stroke="currentColor" stroke-width="2"></path></symbol>
  <symbol id="i-arrow-right" viewBox="0 0 24 24"><path d="M5 12h14M12 5l7 7-7 7" fill="none" stroke="currentColor" stroke-width="2"></path></symbol>
  <symbol id="i-pin" viewBox="0 0 24 24"><path d="M12 22s7-7.5 7-13a7 7 0 1 0-14 0c0 5.5 7 13 7 13z" fill="currentColor"></path><circle cx="12" cy="9" r="2.5" fill="#fff"></circle></symbol>
  <symbol id="i-phone" viewBox="0 0 24 24"><path d="M5 4h4l2 5-3 2a12 12 0 0 0 5 5l2-3 5 2v4a2 2 0 0 1-2 2A16 16 0 0 1 3 6a2 2 0 0 1 2-2z" fill="currentColor"></path></symbol>
  <symbol id="i-mail" viewBox="0 0 24 24"><rect x="3" y="5" width="18" height="14" fill="none" stroke="currentColor" stroke-width="2"></rect><path d="M3 7l9 7 9-7" fill="none" stroke="currentColor" stroke-width="2"></path></symbol>
  <symbol id="i-search" viewBox="0 0 24 24"><circle cx="11" cy="11" r="6" fill="none" stroke="currentColor" stroke-width="2"></circle><path d="M16 16l4 4" stroke="currentColor" stroke-width="2"></path></symbol>
  <symbol id="i-globe" viewBox="0 0 24 24"><circle cx="12" cy="12" r="9" fill="none" stroke="currentColor" stroke-width="2"></circle><path d="M3 12h18M12 3a14 14 0 0 1 0 18M12 3a14 14 0 0 0 0 18" fill="none" stroke="currentColor" stroke-width="2"></path></symbol>
  <symbol id="i-document" viewBox="0 0 24 24"><path d="M6 3h9l5 5v13H6z" fill="none" stroke="currentColor" stroke-width="2"></path><path d="M15 3v5h5M9 13h7M9 17h7" stroke="currentColor" stroke-width="2"></path></symbol>
  <symbol id="i-aircraft" viewBox="0 0 24 24"><path d="M2 14l9-1 4-7h2l-2 7 7 1v2l-7-1-2 6h-2l-1-6-8 1z" fill="currentColor"></path></symbol>
  <symbol id="i-drone" viewBox="0 0 24 24"><circle cx="5" cy="5" r="2" fill="none" stroke="currentColor" stroke-width="2"></circle><circle cx="19" cy="5" r="2" fill="none" stroke="currentColor" stroke-width="2"></circle><circle cx="5" cy="19" r="2" fill="none" stroke="currentColor" stroke-width="2"></circle><circle cx="19" cy="19" r="2" fill="none" stroke="currentColor" stroke-width="2"></circle><path d="M7 5h10M7 19h10M5 7v10M19 7v10" stroke="currentColor" stroke-width="2"></path><rect x="9" y="9" width="6" height="6" fill="currentColor"></rect></symbol>
  <symbol id="i-gear" viewBox="0 0 24 24"><circle cx="12" cy="12" r="3" fill="none" stroke="currentColor" stroke-width="2"></circle><path d="M12 2v3M12 19v3M2 12h3M19 12h3M5 5l2 2M17 17l2 2M19 5l-2 2M7 17l-2 2" stroke="currentColor" stroke-width="2"></path></symbol>
</svg>