<svg xmlns="http://www.w3.org/2000/svg" style="display:none">
  <symbol id="i-chevron-right" viewBox="0 0 24 24">
    <path d="M9 6l6 6-6 6" fill="none" stroke="currentColor" stroke-width="2" />
  </symbol>
  <symbol id="i-chevron-down" viewBox="0 0 24 24">
    <path d="M6 9l6 6 6-6" fill="none" stroke="currentColor" stroke-width="2" />
  </symbol>
  <symbol id="i-close" viewBox="0 0 24 24">
    <path d="M5 5l14 14M19 5L5 19" fill="none" stroke="currentColor" stroke-width="2" />
  </symbol>
  <symbol id="i-clock" viewBox="0 0 24 24">
    <circle cx="12" cy="12" r="9" fill="none" stroke="currentColor" stroke-width="2" />
    <path d="M12 7v5l3 2" fill="none" stroke="currentColor" stroke-width="2" />
  </symbol>
  <symbol id="i-check" viewBox="0 0 24 24">
    <path d="M5 13l4 4L19 7" fill="none" stroke="currentColor" stroke-width="2" />
  </symbol>
  <symbol id="i-play" viewBox="0 0 24 24">
    <path d="m8 6 10 6-10 6z" fill="currentColor" />
  </symbol>
  <symbol id="i-stop" viewBox="0 0 24 24">
    <rect x="7" y="7" width="10" height="10" fill="currentColor" />
  </symbol>
  <symbol id="i-document" viewBox="0 0 24 24">
    <path d="M6 3h9l5 5v13H6z" fill="none" stroke="currentColor" stroke-width="2" />
    <path d="M15 3v5h5M9 13h7M9 17h7" fill="none" stroke="currentColor" stroke-width="2" />
  </symbol>
  <symbol id="i-folder" viewBox="0 0 24 24">
    <path d="M3 7h6l2 2h10v8a2 2 0 0 1-2 2H5a2 2 0 0 1-2-2z" fill="none" stroke="currentColor" stroke-width="2" />
    <path d="M3 7a2 2 0 0 1 2-2h4l2 2h8a2 2 0 0 1 2 2" fill="none" stroke="currentColor" stroke-width="2" />
  </symbol>
  <symbol id="i-terminal" viewBox="0 0 24 24">
    <rect x="3" y="5" width="18" height="14" rx="1" fill="none" stroke="currentColor" stroke-width="2" />
    <path d="m7 10 3 2-3 2M12 16h5" fill="none" stroke="currentColor" stroke-width="2" />
  </symbol>
  <symbol id="i-gear" viewBox="0 0 24 24">
    <circle cx="12" cy="12" r="3" fill="none" stroke="currentColor" stroke-width="2" />
    <path d="M12 2v3M12 19v3M2 12h3M19 12h3M5 5l2 2M17 17l2 2M19 5l-2 2M7 17l-2 2" fill="none" stroke="currentColor" stroke-width="2" />
  </symbol>
  <symbol id="i-info" viewBox="0 0 24 24">
    <circle cx="12" cy="12" r="9" fill="none" stroke="currentColor" stroke-width="2" />
    <path d="M12 11v5M12 8h.01" fill="none" stroke="currentColor" stroke-linecap="round" stroke-width="2" />
  </symbol>
  <symbol id="i-upload" viewBox="0 0 24 24">
    <path d="M12 16V5M7 10l5-5 5 5" fill="none" stroke="currentColor" stroke-width="2" />
    <path d="M5 19h14" fill="none" stroke="currentColor" stroke-width="2" />
  </symbol>
  <symbol id="i-download" viewBox="0 0 24 24">
    <path d="M12 5v11M17 11l-5 5-5-5" fill="none" stroke="currentColor" stroke-width="2" />
    <path d="M5 19h14" fill="none" stroke="currentColor" stroke-width="2" />
  </symbol>
  <symbol id="i-spark" viewBox="0 0 24 24">
    <path d="m12 2 1.9 5.1L19 9l-5.1 1.9L12 16l-1.9-5.1L5 9l5.1-1.9z" fill="currentColor" />
    <path d="m18 15 .9 2.1L21 18l-2.1.9L18 21l-.9-2.1L15 18l2.1-.9zM5 15l.9 2.1L8 18l-2.1.9L5 21l-.9-2.1L2 18l2.1-.9z" fill="currentColor" />
  </symbol>
</svg>
